<svg width="50" height="50" viewBox="0 0 26 24" fill="none" xmlns="http://www.w3.org/2000/svg">
<path d="M12.6318 2.25C6.97286 2.25 2.36865 6.624 2.36865 12C2.36865 17.376 6.97286 21.75 12.6318 21.75C18.2908 21.75 22.895 17.376 22.895 12C22.895 6.624 18.2908 2.25 12.6318 2.25ZM11.7437 3.79725C11.7752 3.7935 11.81 3.7995 11.8423 3.79725V4.5H13.4213V3.7965C15.4412 3.96846 17.3333 4.80897 18.7673 6.17127C20.2013 7.53357 21.0861 9.3311 21.2671 11.25H20.5265V12.75H21.2671C21.0861 14.6689 20.2013 16.4664 18.7673 17.8287C17.3333 19.191 15.4412 20.0315 13.4213 20.2035V19.5H11.8423V20.2035C9.82245 20.0315 7.93031 19.191 6.49631 17.8287C5.06231 16.4664 4.17756 14.6689 3.99655 12.75H4.73707V11.25H3.99655C4.36918 7.31775 7.61786 4.1925 11.7437 3.7965V3.79725ZM17.4437 7.4295L10.7331 10.1955L7.81997 16.5705L14.5305 13.8045L17.4437 7.4295ZM12.6318 10.875C13.2634 10.875 13.816 11.4 13.816 12C13.816 12.6 13.2634 13.125 12.6318 13.125C12.0002 13.125 11.4476 12.6 11.4476 12C11.4476 11.4 12.0002 10.875 12.6318 10.875Z" fill="#BE2C2D"/>
</svg>
